<svg width="295" height="291" viewBox="0 0 295 291" fill="none" xmlns="http://www.w3.org/2000/svg">
<g clip-path="url(#clip0_90_2524)" filter="url(#filter0_d_90_2524)">
<g filter="url(#filter1_f_90_2524)">
<ellipse cx="147.5" cy="271.181" rx="142.6" ry="7.25083" fill="#D9D9D9"/>
</g>
<path d="M22.5679 246.71V261.318H25.9377C25.761 259.781 25.761 258.228 25.9377 256.691C26.2578 254.974 29.9185 250.539 29.808 246.733L22.5679 246.71Z" fill="#EBEBEB"/>
<path d="M49.5261 246.71V261.318H52.8959C52.7192 259.781 52.7192 258.228 52.8959 256.691C53.216 254.974 56.8768 250.539 56.7662 246.733L49.5261 246.71Z" fill="#E0E0E0"/>
<path d="M75.914 246.71V261.318H72.5384C72.7119 259.781 72.7119 258.228 72.5384 256.691C72.2125 254.974 68.5575 250.539 68.6623 246.733L75.914 246.71Z" fill="#EBEBEB"/>
<path d="M99.2406 246.71V261.318H95.8708C96.0443 259.781 96.0443 258.228 95.8708 256.691C95.5507 254.974 91.8899 250.539 92.0005 246.733L99.2406 246.71Z" fill="#E0E0E0"/>
<path d="M101.01 174.676H20.2748V247.175H101.01V174.676Z" fill="#F5F5F5"/>
<path d="M79.2605 174.676L79.86 247.175H101.01V174.676H79.2605Z" fill="#E0E0E0"/>
<path d="M75.7394 180.013H23.9065V198.462H75.7394V180.013Z" fill="#EBEBEB"/>
<path d="M75.7394 202.134H23.9065V220.584H75.7394V202.134Z" fill="#EBEBEB"/>
<path d="M75.7394 224.262H23.9065V242.711H75.7394V224.262Z" fill="#EBEBEB"/>
<path d="M43.776 153.846L41.5411 174.594H70.1871L72.5617 153.846H43.776Z" fill="#E0E0E0"/>
<path d="M44.9574 155.336L42.7807 173.488H68.6332L70.7226 155.336H44.9574Z" fill="white"/>
<path d="M49.305 158.391L47.9664 170.439H64.2798L65.1179 158.391H49.305Z" fill="#EBEBEB"/>
<path d="M71.5374 162.78L77.4563 174.676L70.1871 174.594L71.5374 162.78Z" fill="#EBEBEB"/>
<path d="M51.7203 190.198C51.7214 190.573 51.6111 190.94 51.4033 191.253C51.1956 191.566 50.8996 191.81 50.553 191.955C50.2065 192.099 49.8248 192.138 49.4564 192.065C49.0879 191.992 48.7493 191.812 48.4834 191.547C48.2175 191.282 48.0362 190.944 47.9625 190.576C47.8888 190.208 47.9261 189.826 48.0695 189.479C48.2129 189.132 48.4561 188.835 48.7682 188.626C49.0804 188.418 49.4474 188.306 49.8229 188.306C50.3251 188.306 50.8068 188.505 51.1625 188.86C51.5181 189.214 51.7187 189.695 51.7203 190.198Z" fill="#E0E0E0"/>
<path d="M51.7203 212.546C51.7203 212.922 51.609 213.288 51.4005 213.6C51.192 213.912 50.8957 214.156 50.549 214.299C50.2023 214.443 49.8208 214.48 49.4528 214.407C49.0847 214.334 48.7467 214.153 48.4813 213.888C48.216 213.623 48.0353 213.285 47.9621 212.917C47.8889 212.548 47.9264 212.167 48.07 211.82C48.2136 211.474 48.4568 211.177 48.7688 210.969C49.0809 210.76 49.4477 210.649 49.8229 210.649C50.0723 210.648 50.3194 210.697 50.5499 210.792C50.7805 210.887 50.9899 211.027 51.1663 211.203C51.3426 211.379 51.4823 211.589 51.5774 211.819C51.6725 212.05 51.721 212.297 51.7203 212.546Z" fill="#E0E0E0"/>
<path d="M51.7203 234.889C51.7203 235.265 51.609 235.631 51.4005 235.943C51.192 236.255 50.8957 236.499 50.549 236.642C50.2023 236.786 49.8208 236.823 49.4528 236.75C49.0847 236.677 48.7467 236.496 48.4813 236.231C48.216 235.966 48.0353 235.628 47.9621 235.26C47.8889 234.891 47.9264 234.51 48.07 234.163C48.2136 233.817 48.4568 233.52 48.7688 233.312C49.0809 233.103 49.4477 232.992 49.8229 232.992C50.3261 232.992 50.8087 233.192 51.1645 233.548C51.5204 233.904 51.7203 234.386 51.7203 234.889Z" fill="#E0E0E0"/>
<path d="M75.6579 56.8207L29.8836 56.3783L31.1582 116.033L76.9325 116.202L75.6579 56.8207Z" fill="#E0E0E0"/>
<path d="M72.7072 59.4804L32.6365 58.4444L33.7947 112.547L73.8537 113.042L72.7072 59.4804Z" fill="#FAFAFA"/>
<path d="M65.8687 67.5644L39.2771 67.1221L40.0919 104.94L66.6544 104.37L65.8687 67.5644Z" fill="#EBEBEB"/>
<path d="M40.0919 104.94L66.2412 84.9429L39.2771 67.1221L40.0919 104.94Z" fill="#F5F5F5"/>
<path d="M272.636 25.7244L232.472 25.3345L233.595 77.6737L273.747 77.8192L272.636 25.7244Z" fill="#E0E0E0"/>
<path d="M270.04 28.064L234.887 27.1503L235.906 74.6124L271.047 75.0431L270.04 28.064Z" fill="#FAFAFA"/>
<path d="M264.04 35.1528L240.719 34.7629L241.429 67.9369L264.732 67.4422L264.04 35.1528Z" fill="#EBEBEB"/>
<path d="M241.429 67.9369L264.371 50.3954L240.719 34.7629L241.429 67.9369Z" fill="#F5F5F5"/>
<path d="M227.647 222.499C227.478 223.011 233.467 245.779 233.467 245.779L237.576 244.923L231.925 222.499H227.647Z" fill="#EBEBEB"/>
<path d="M259.488 219.245L251.271 245.779H256.066L263.941 221.131L259.488 219.245Z" fill="#F5F5F5"/>
<path d="M267.019 215.136L257.603 245.779H262.398L271.472 217.022L267.019 215.136Z" fill="#EBEBEB"/>
<path d="M230.557 243.899L235.353 260.503H259.488L263.941 243.899H230.557Z" fill="#E0E0E0"/>
<path d="M243.006 243.899C242.985 243.842 242.968 243.783 242.954 243.724L242.826 243.218C242.715 242.752 242.564 242.095 242.366 241.256L240.707 234.005L235.289 209.823L235.434 209.945H231.209L231.355 209.759C233.502 219.274 235.429 227.801 236.808 233.958C237.483 237.025 238.03 239.499 238.414 241.233C238.589 242.077 238.734 242.735 238.833 243.206C238.874 243.422 238.909 243.59 238.932 243.718C238.942 243.778 238.942 243.839 238.932 243.899C238.911 243.842 238.894 243.783 238.88 243.724C238.845 243.596 238.804 243.427 238.752 243.218C238.635 242.752 238.478 242.095 238.275 241.256C237.873 239.51 237.297 237.06 236.581 234.005C235.167 227.847 233.217 219.333 231.04 209.823L230.994 209.642H235.533L235.562 209.759C237.652 219.274 239.532 227.801 240.888 233.958C241.545 237.025 242.081 239.499 242.453 241.233C242.628 242.077 242.762 242.735 242.861 243.206L242.96 243.718C242.985 243.776 243 243.836 243.006 243.899Z" fill="#E0E0E0"/>
<path d="M266.595 261.196C266.595 261.277 211.34 261.347 143.211 261.347C75.0817 261.347 19.8267 261.277 19.8267 261.196C19.8267 261.114 75.0701 261.044 143.24 261.044C211.409 261.044 266.595 261.114 266.595 261.196Z" fill="#263238"/>
<path d="M250.706 102.345C250.573 102.289 250.434 102.246 250.293 102.217C249.877 102.123 249.446 102.123 249.03 102.217C248.356 102.39 247.73 102.712 247.197 103.159C246.472 103.787 245.844 104.519 245.334 105.33C244.141 107.158 243.204 109.684 242.11 112.629C240.844 115.991 239.748 119.416 238.827 122.889C238.656 123.21 238.427 123.496 238.152 123.733C238.01 123.862 237.842 123.959 237.66 124.018C237.477 124.076 237.284 124.094 237.093 124.071C236.719 123.976 236.381 123.773 236.121 123.489C235.848 123.238 235.592 122.971 235.335 122.697C234.83 122.142 234.292 121.617 233.723 121.126C233.174 120.597 232.443 120.299 231.68 120.294C231.299 120.359 230.936 120.503 230.614 120.718C230.292 120.932 230.019 121.212 229.812 121.539C229.399 122.246 229.177 123.048 229.166 123.867C229.067 125.532 229.55 127.214 229.841 128.954C230.132 130.694 230.499 132.481 230.837 134.302C231.011 135.216 231.18 136.136 231.355 137.067L231.616 138.475C231.696 138.721 231.723 138.982 231.694 139.239C231.664 139.496 231.581 139.743 231.448 139.965C231.36 140.082 231.239 140.169 231.101 140.216C230.963 140.263 230.814 140.267 230.674 140.227C230.422 140.154 230.187 140.033 229.981 139.872L228.817 138.987C228.025 138.389 227.201 137.833 226.349 137.323C225.497 136.792 224.566 136.399 223.591 136.159C223.108 136.045 222.606 136.045 222.124 136.159C221.644 136.28 221.22 136.564 220.925 136.962C220.365 137.826 220.09 138.844 220.139 139.872C220.141 140.931 220.244 141.987 220.448 143.027C220.868 145.163 221.461 147.261 222.223 149.3C222.445 149.822 222.614 150.364 222.729 150.918C222.757 151.076 222.752 151.237 222.715 151.392C222.678 151.547 222.61 151.693 222.514 151.821C222.462 151.881 222.406 151.937 222.345 151.989C222.279 152.049 222.202 152.094 222.118 152.123C221.941 152.15 221.76 152.108 221.612 152.007C221.128 151.697 220.678 151.338 220.267 150.936L219.022 149.772C218.206 148.982 217.32 148.269 216.374 147.642C215.902 147.332 215.386 147.096 214.843 146.943C214.585 146.863 214.313 146.839 214.046 146.872C213.778 146.905 213.52 146.995 213.289 147.135C212.84 147.462 212.527 147.943 212.41 148.486C212.27 149.041 212.2 149.612 212.201 150.185C212.206 151.362 212.353 152.535 212.637 153.677C213.212 155.999 214.062 158.244 215.169 160.364C216.271 162.538 217.529 164.629 218.935 166.621C219.638 167.631 220.396 168.603 221.204 169.531C221.984 170.497 222.776 171.457 223.567 172.441V172.476L223.428 172.418L227.129 171.882C228.356 171.736 229.574 171.526 230.778 171.254C233.153 170.719 235.487 170.017 237.762 169.152C240.007 168.322 242.146 167.23 244.135 165.899C245.112 165.253 246.005 164.488 246.795 163.623C247.185 163.2 247.519 162.728 247.79 162.221C248.068 161.741 248.159 161.175 248.046 160.632C247.971 160.372 247.842 160.131 247.666 159.925C247.49 159.719 247.273 159.554 247.028 159.439C246.522 159.192 245.983 159.019 245.427 158.927C244.305 158.757 243.169 158.689 242.034 158.723H240.335C239.751 158.746 239.166 158.709 238.589 158.612C238.41 158.589 238.247 158.498 238.135 158.356C238.092 158.277 238.066 158.19 238.059 158.1C238.05 158.021 238.05 157.941 238.059 157.862C238.077 157.704 238.126 157.551 238.203 157.412C238.279 157.274 238.383 157.151 238.507 157.053C238.966 156.721 239.455 156.435 239.968 156.197C241.905 155.201 243.756 154.047 245.503 152.746C246.348 152.116 247.128 151.402 247.831 150.616C248.558 149.889 249.038 148.953 249.204 147.939C249.253 147.445 249.13 146.949 248.855 146.536C248.577 146.126 248.206 145.787 247.773 145.547C246.895 145.064 245.946 144.724 244.962 144.54C243.989 144.344 243.006 144.202 242.017 144.115L240.55 143.975C240.288 143.96 240.033 143.891 239.799 143.771C239.669 143.704 239.563 143.6 239.493 143.471C239.423 143.342 239.394 143.195 239.409 143.05C239.463 142.798 239.569 142.56 239.72 142.351C239.872 142.143 240.065 141.968 240.288 141.839L241.452 140.978L243.693 139.273L248.023 135.984C249.414 134.896 250.898 133.976 251.946 132.673C252.482 132.063 252.851 131.325 253.017 130.531C253.084 130.149 253.07 129.757 252.976 129.381C252.882 129.005 252.709 128.653 252.47 128.348C252.215 128.068 251.886 127.866 251.521 127.766C251.156 127.658 250.778 127.595 250.398 127.58C249.648 127.561 248.897 127.588 248.151 127.662C247.779 127.662 247.406 127.714 247.039 127.72C246.657 127.749 246.275 127.666 245.939 127.481C245.779 127.373 245.644 127.231 245.543 127.065C245.443 126.899 245.38 126.714 245.357 126.521C245.314 126.159 245.336 125.793 245.421 125.438C247.087 122.282 248.593 119.044 249.932 115.737C251.096 112.827 252.103 110.324 252.464 108.171C252.64 107.231 252.679 106.27 252.58 105.319C252.505 104.627 252.272 103.962 251.899 103.375C251.674 103.015 251.367 102.714 251.003 102.496C250.879 102.42 250.749 102.356 250.613 102.304C250.754 102.342 250.889 102.399 251.015 102.473C251.389 102.687 251.708 102.986 251.946 103.346C252.326 103.938 252.566 104.608 252.65 105.307C252.763 106.266 252.734 107.237 252.563 108.188C252.213 110.347 251.224 112.844 250.066 115.754C248.755 119.1 247.275 122.377 245.631 125.572C245.55 125.9 245.531 126.239 245.573 126.573C245.589 126.738 245.639 126.897 245.722 127.041C245.804 127.184 245.916 127.309 246.05 127.406C246.354 127.566 246.697 127.637 247.039 127.609C247.4 127.609 247.767 127.574 248.139 127.545C248.895 127.469 249.655 127.44 250.415 127.458C250.81 127.474 251.2 127.538 251.579 127.65C251.979 127.757 252.342 127.972 252.627 128.273C252.88 128.599 253.063 128.974 253.163 129.375C253.264 129.776 253.279 130.194 253.209 130.601C253.04 131.435 252.654 132.209 252.091 132.847C251.015 134.186 249.519 135.117 248.139 136.211L243.815 139.505L241.58 141.205L240.445 142.072C240.254 142.2 240.08 142.353 239.927 142.526C239.787 142.692 239.695 142.893 239.66 143.108C239.65 143.205 239.669 143.302 239.716 143.388C239.763 143.473 239.834 143.542 239.922 143.585C240.127 143.685 240.351 143.742 240.579 143.754L242.046 143.894C243.043 143.979 244.034 144.12 245.014 144.319C246.032 144.506 247.015 144.854 247.924 145.349C248.388 145.616 248.786 145.984 249.088 146.425C249.391 146.888 249.531 147.44 249.484 147.991C249.311 149.064 248.809 150.056 248.046 150.831C247.323 151.631 246.524 152.358 245.66 153.002C243.902 154.316 242.039 155.484 240.09 156.494C239.595 156.719 239.123 156.991 238.682 157.309C238.585 157.383 238.505 157.476 238.445 157.582C238.385 157.688 238.347 157.805 238.333 157.926C238.327 157.984 238.327 158.042 238.333 158.1C238.333 158.147 238.333 158.257 238.373 158.252C238.448 158.319 238.542 158.361 238.641 158.374C239.187 158.462 239.741 158.497 240.294 158.479H241.994C243.146 158.437 244.3 158.505 245.439 158.682C246.026 158.774 246.596 158.956 247.127 159.224C247.407 159.358 247.656 159.55 247.857 159.788C248.058 160.026 248.206 160.304 248.291 160.603C248.423 161.214 248.323 161.853 248.011 162.395C247.73 162.925 247.382 163.416 246.975 163.856C246.17 164.741 245.259 165.522 244.263 166.184C242.257 167.534 240.096 168.638 237.826 169.473C235.533 170.347 233.18 171.055 230.784 171.591C229.576 171.865 228.354 172.075 227.123 172.22L223.416 172.761H223.329L223.276 172.691H223.247L220.884 169.781C220.076 168.851 219.316 167.88 218.609 166.871C217.193 164.865 215.924 162.758 214.814 160.568C213.702 158.424 212.848 156.156 212.271 153.811C211.976 152.652 211.826 151.462 211.823 150.267C211.823 149.666 211.898 149.068 212.044 148.486C212.181 147.876 212.537 147.337 213.045 146.972C213.31 146.809 213.607 146.703 213.916 146.663C214.225 146.623 214.539 146.649 214.837 146.74C215.407 146.901 215.949 147.148 216.444 147.473C217.406 148.109 218.306 148.834 219.133 149.638L220.378 150.802C220.774 151.187 221.207 151.532 221.67 151.832C221.753 151.892 221.853 151.925 221.955 151.925C221.955 151.925 222.043 151.873 222.083 151.844L222.211 151.716C222.282 151.618 222.332 151.506 222.358 151.388C222.384 151.27 222.385 151.148 222.363 151.029C222.252 150.496 222.088 149.975 221.874 149.475C221.109 147.42 220.513 145.306 220.093 143.155C219.886 142.098 219.783 141.024 219.784 139.948C219.738 138.86 220.036 137.785 220.634 136.875C220.966 136.433 221.438 136.117 221.973 135.978C222.495 135.856 223.039 135.856 223.562 135.978C224.562 136.215 225.518 136.608 226.396 137.142C227.258 137.654 228.09 138.216 228.887 138.824L230.051 139.709C230.224 139.85 230.421 139.958 230.633 140.029C230.727 140.057 230.827 140.055 230.919 140.023C231.012 139.992 231.093 139.933 231.151 139.855C231.266 139.681 231.332 139.48 231.343 139.273C231.349 139.041 231.323 138.81 231.267 138.586C231.18 138.114 231.098 137.649 231.011 137.183C230.837 136.252 230.668 135.327 230.499 134.419C230.167 132.591 229.836 130.81 229.515 129.07C229.195 127.33 228.747 125.642 228.846 123.925C228.863 123.074 229.1 122.242 229.533 121.51C229.757 121.156 230.054 120.853 230.404 120.622C230.755 120.391 231.15 120.238 231.564 120.171C231.976 120.137 232.39 120.22 232.757 120.41C233.114 120.583 233.449 120.8 233.752 121.056C234.328 121.553 234.872 122.086 235.382 122.651C235.63 122.922 235.886 123.184 236.15 123.436C236.387 123.687 236.69 123.867 237.023 123.954C237.188 123.973 237.355 123.956 237.512 123.905C237.67 123.853 237.815 123.769 237.937 123.658C238.192 123.438 238.405 123.173 238.566 122.878C239.498 119.399 240.609 115.97 241.895 112.605C243 109.666 243.955 107.135 245.171 105.307C245.691 104.491 246.331 103.757 247.069 103.13C247.611 102.681 248.251 102.362 248.937 102.199C249.358 102.1 249.796 102.1 250.217 102.199C250.387 102.22 250.553 102.269 250.706 102.345Z" fill="#263238"/>
<path d="M247.651 110.26C247.64 110.326 247.621 110.391 247.592 110.452L247.394 110.999C247.202 111.494 246.935 112.198 246.597 113.088C245.887 114.922 244.88 117.547 243.635 120.777L233.968 146.175C230.208 156.069 226.763 165.073 224.213 171.545C222.945 174.78 221.885 177.394 221.164 179.198C220.803 180.082 220.518 180.775 220.314 181.264C220.215 181.491 220.145 181.665 220.087 181.805L220 181.98C220.01 181.915 220.03 181.853 220.058 181.794C220.104 181.654 220.174 181.473 220.256 181.246C220.448 180.746 220.716 180.048 221.053 179.151C221.763 177.318 222.77 174.699 224.016 171.469L233.683 146.082C237.442 136.159 240.882 127.19 243.437 120.718C244.706 117.483 245.765 114.864 246.487 113.065C246.847 112.181 247.133 111.482 247.336 110.993C247.435 110.772 247.505 110.592 247.563 110.458L247.651 110.26Z" fill="#263238"/>
<path d="M247.965 130.368C247.505 130.697 247.018 130.988 246.51 131.235L242.948 133.214C241.551 133.988 240.282 134.681 239.345 135.152C238.853 135.432 238.332 135.658 237.791 135.827C238.255 135.504 238.741 135.214 239.246 134.96L242.797 132.952C244.193 132.178 245.468 131.503 246.411 131.043C246.906 130.769 247.426 130.543 247.965 130.368Z" fill="#263238"/>
<path d="M237.32 135.455C237.244 135.49 235.859 132.847 234.23 129.553C232.6 126.259 231.32 123.559 231.407 123.518C231.494 123.477 232.868 126.125 234.503 129.419C236.139 132.713 237.396 135.414 237.32 135.455Z" fill="#263238"/>
<path d="M232.233 150.953C231.768 150.61 231.339 150.22 230.953 149.789C230.196 149.033 229.207 147.956 228.13 146.711C227.054 145.465 226.181 144.289 225.564 143.416C225.201 142.966 224.887 142.478 224.627 141.961C225.026 142.377 225.396 142.82 225.732 143.288C226.396 144.126 227.31 145.273 228.363 146.513C229.416 147.752 230.394 148.841 231.104 149.638C231.513 150.047 231.891 150.487 232.233 150.953Z" fill="#263238"/>
<path d="M242.878 148.451C242.381 148.649 241.867 148.801 241.342 148.905C240.387 149.143 239.06 149.452 237.594 149.778C236.127 150.104 234.788 150.36 233.822 150.569C233.304 150.7 232.773 150.78 232.239 150.808C232.736 150.611 233.251 150.461 233.776 150.36C234.73 150.121 236.057 149.778 237.53 149.481C239.002 149.184 240.329 148.899 241.295 148.695C241.814 148.565 242.344 148.483 242.878 148.451Z" fill="#263238"/>
<path d="M240.125 162.71C239.479 162.933 238.818 163.11 238.146 163.239C236.913 163.525 235.236 163.903 233.328 164.299C231.419 164.694 229.725 165.044 228.485 165.276C227.821 165.435 227.146 165.542 226.466 165.596C227.111 165.371 227.773 165.194 228.445 165.067C229.673 164.782 231.355 164.403 233.263 164.008C235.172 163.612 236.86 163.263 238.1 163.03C238.766 162.871 239.443 162.764 240.125 162.71Z" fill="#263238"/>
<path d="M226.768 165.433C226.606 165.321 226.46 165.188 226.332 165.038C226.064 164.77 225.692 164.374 225.232 163.874C224.318 162.873 223.09 161.458 221.798 159.846C220.506 158.234 219.394 156.721 218.62 155.609C218.23 155.056 217.928 154.602 217.724 154.282C217.603 154.125 217.505 153.95 217.433 153.764C217.579 153.898 217.708 154.048 217.817 154.213L218.795 155.487C219.61 156.564 220.745 158.048 222.037 159.654C223.329 161.261 224.522 162.698 225.395 163.728C225.89 164.266 226.348 164.836 226.768 165.433Z" fill="#263238"/>
<path d="M220.948 204.422C210.845 196.274 209.378 182.346 210.647 170.002C210.862 167.942 210.781 165.748 211.887 164.002C212.992 162.256 215.379 161.179 217.165 162.174C218.649 163.001 219.191 164.834 219.947 166.365C220.96 168.411 222.529 170.13 224.475 171.323C225.744 172.097 227.345 172.627 228.689 171.998C230.54 171.137 230.918 168.693 231.046 166.638L231.762 155.15C231.89 153.089 232.03 150.994 232.804 149.091C233.578 147.188 235.132 145.471 237.105 145.052C239.078 144.633 241.435 145.936 241.708 147.962C241.728 148.817 241.689 149.673 241.592 150.523C241.592 151.378 241.924 152.35 242.715 152.641C243.507 152.932 244.38 152.414 245.043 151.855C247.307 149.929 248.925 147.357 250.456 144.79C251.986 142.223 253.471 139.593 255.554 137.463C257.638 135.332 260.414 133.72 263.37 133.755C266.327 133.79 269.33 135.821 269.877 138.76C270.424 141.7 268.533 144.534 266.531 146.751C263.558 150.048 260.124 152.896 256.334 155.208C255.594 155.541 254.982 156.105 254.588 156.814C254.047 158.153 255.251 159.602 256.573 160.149C258.068 160.76 259.745 160.731 261.333 161.016C262.922 161.301 264.61 162.139 265.111 163.693C265.809 165.853 263.9 167.93 262.072 169.257C258.43 171.905 254.361 173.908 250.043 175.182C248.489 175.63 246.865 176.003 245.573 176.98C244.281 177.958 243.419 179.757 244.06 181.252C244.7 182.748 246.556 183.347 248.134 183.161C249.711 182.975 251.212 182.213 252.76 181.747C255.67 180.874 259.291 181.322 260.908 183.883C261.985 185.571 261.939 187.811 261.205 189.703C260.387 191.54 259.21 193.194 257.742 194.568C252.9 199.637 246.798 203.329 240.061 205.266C233.357 207.087 227.257 207.285 220.902 204.457" fill="#2196F3"/>
<g opacity="0.1">
<path d="M220.948 204.422C210.845 196.274 209.378 182.346 210.647 170.002C210.862 167.942 210.781 165.748 211.887 164.002C212.992 162.256 215.379 161.179 217.165 162.174C218.649 163.001 219.191 164.834 219.947 166.365C220.96 168.411 222.529 170.13 224.475 171.323C225.744 172.097 227.345 172.627 228.689 171.998C230.54 171.137 230.918 168.693 231.046 166.638L231.762 155.15C231.89 153.089 232.03 150.994 232.804 149.091C233.578 147.188 235.132 145.471 237.105 145.052C239.078 144.633 241.435 145.936 241.708 147.962C241.728 148.817 241.689 149.673 241.592 150.523C241.592 151.378 241.924 152.35 242.715 152.641C243.507 152.932 244.38 152.414 245.043 151.855C247.307 149.929 248.925 147.357 250.456 144.79C251.986 142.223 253.471 139.593 255.554 137.463C257.638 135.332 260.414 133.72 263.37 133.755C266.327 133.79 269.33 135.821 269.877 138.76C270.424 141.7 268.533 144.534 266.531 146.751C263.558 150.048 260.124 152.896 256.334 155.208C255.594 155.541 254.982 156.105 254.588 156.814C254.047 158.153 255.251 159.602 256.573 160.149C258.068 160.76 259.745 160.731 261.333 161.016C262.922 161.301 264.61 162.139 265.111 163.693C265.809 165.853 263.9 167.93 262.072 169.257C258.43 171.905 254.361 173.908 250.043 175.182C248.489 175.63 246.865 176.003 245.573 176.98C244.281 177.958 243.419 179.757 244.06 181.252C244.7 182.748 246.556 183.347 248.134 183.161C249.711 182.975 251.212 182.213 252.76 181.747C255.67 180.874 259.291 181.322 260.908 183.883C261.985 185.571 261.939 187.811 261.205 189.703C260.387 191.54 259.21 193.194 257.742 194.568C252.9 199.637 246.798 203.329 240.061 205.266C233.357 207.087 227.257 207.285 220.902 204.457" fill="black"/>
</g>
<path d="M220.157 213.594C221.127 207.897 222.639 202.306 224.673 196.896C227.191 190.297 230.084 183.848 233.339 177.58L235.871 172.633C236.709 171.009 237.535 169.403 238.443 167.878C240.191 164.959 242.097 162.138 244.153 159.427C246.102 156.826 248.04 154.428 249.874 152.199C251.707 149.97 253.465 147.933 255.141 146.14C257.773 143.299 260.626 140.67 263.673 138.277C264.75 137.433 265.605 136.805 266.193 136.386L266.862 135.914C266.936 135.858 267.014 135.808 267.095 135.763C267.034 135.833 266.964 135.893 266.886 135.944L266.24 136.45C265.658 136.886 264.825 137.532 263.766 138.4C260.762 140.827 257.945 143.477 255.339 146.326C253.68 148.125 251.94 150.173 250.101 152.403C248.262 154.632 246.347 157.059 244.415 159.643C242.37 162.344 240.477 165.158 238.746 168.07C237.844 169.589 237 171.184 236.191 172.807L233.659 177.754C230.413 184.01 227.516 190.442 224.982 197.019C222.941 202.405 221.407 207.969 220.401 213.641" fill="#263238"/>
<path d="M238.554 167.86C238.472 167.57 238.423 167.271 238.408 166.97C238.344 166.388 238.269 165.562 238.193 164.526C238.048 162.465 237.937 159.602 237.826 156.453C237.716 153.305 237.564 150.447 237.384 148.387C237.297 147.362 237.221 146.53 237.157 145.954C237.105 145.656 237.087 145.354 237.105 145.052C237.199 145.338 237.266 145.632 237.303 145.931C237.407 146.513 237.53 147.333 237.652 148.363C237.902 150.418 238.094 153.276 238.234 156.436C238.373 159.596 238.426 162.361 238.49 164.514C238.531 165.486 238.56 166.301 238.589 166.958C238.606 167.259 238.594 167.562 238.554 167.86Z" fill="#263238"/>
<path d="M265.303 164.735C264.95 164.79 264.594 164.81 264.238 164.793C263.557 164.793 262.573 164.793 261.328 164.875C258.895 164.974 255.508 165.218 251.835 165.66C248.163 166.103 244.81 166.644 242.413 167.11C241.214 167.331 240.248 167.54 239.578 167.692C239.235 167.782 238.884 167.843 238.531 167.872C238.858 167.734 239.197 167.625 239.543 167.546C240.201 167.36 241.161 167.115 242.36 166.854C244.746 166.324 248.081 165.736 251.789 165.288C254.953 164.902 258.135 164.678 261.322 164.619C262.544 164.619 263.533 164.619 264.232 164.654C264.59 164.649 264.949 164.676 265.303 164.735Z" fill="#263238"/>
<path d="M225.034 196.419C224.965 196.317 224.912 196.205 224.877 196.087L224.487 195.098C224.155 194.242 223.707 192.985 223.177 191.431C222.112 188.318 220.774 183.97 219.36 179.157C217.945 174.344 216.653 169.985 215.652 166.854C215.163 165.329 214.756 164.077 214.459 163.146L214.139 162.139C214.094 162.024 214.064 161.902 214.052 161.779C214.118 161.882 214.171 161.994 214.209 162.11C214.314 162.378 214.442 162.692 214.593 163.1C214.925 163.955 215.373 165.212 215.908 166.766C216.973 169.88 218.312 174.228 219.72 179.046C221.129 183.865 222.432 188.213 223.434 191.344C223.922 192.869 224.324 194.12 224.598 195.051L224.918 196.058C224.973 196.173 225.012 196.294 225.034 196.419Z" fill="#263238"/>
<path d="M260.908 187.515C260.796 187.575 260.674 187.616 260.548 187.637L259.506 187.91L255.665 188.871C252.417 189.68 247.953 190.849 243.018 192.153C238.082 193.457 233.601 194.586 230.336 195.331C228.706 195.703 227.385 195.994 226.466 196.175L225.406 196.378C225.285 196.409 225.159 196.423 225.034 196.419C225.147 196.365 225.266 196.326 225.389 196.303L226.437 196.029L230.278 195.069C233.52 194.26 237.989 193.084 242.925 191.781C247.86 190.477 252.341 189.348 255.601 188.603C257.23 188.23 258.557 187.945 259.471 187.765L260.53 187.561C260.654 187.531 260.781 187.515 260.908 187.515Z" fill="#263238"/>
<path d="M223.3 43.7606H82.1589V237.159H223.3V43.7606Z" fill="#455A64"/>
<path d="M217.718 225.659H191.581H93.9153V51.5768H217.718V204.003V225.659Z" fill="#E0E0E0"/>
<path d="M215.763 222.429H189.858H93.0714V49.2779H215.763V200.889V222.429Z" fill="#EBEBEB"/>
<path d="M202.58 208.955L188.45 220.462H90.7841V49.7144H214.587V199.219L202.58 208.955Z" fill="#FAFAFA"/>
<path d="M202.58 208.938C202.58 208.938 202.831 208.723 203.337 208.309L205.601 206.459L214.558 199.166V199.201C214.558 174.641 214.511 120.049 214.471 49.697L214.605 49.8367H91.8783H90.8016L90.9529 49.6853C90.9529 113.88 90.9529 173.098 90.918 220.432L90.8016 220.31L188.467 220.38H188.432L199.048 211.772L201.707 209.625C202.289 209.148 202.598 208.915 202.598 208.915L201.725 209.642L199.065 211.848L188.484 220.497L90.7841 220.578H90.6619V220.456C90.6619 173.122 90.6619 113.903 90.6328 49.7086V49.5573H91.8608H214.587H214.727V49.6912C214.686 120.067 214.651 174.635 214.64 199.195L205.648 206.453L203.372 208.356L202.58 208.938Z" fill="#263238"/>
<path d="M135.982 37.7834H169.826C172.01 37.7834 174.104 38.6511 175.649 40.1955C177.193 41.7399 178.061 43.8346 178.061 46.0187V55.1503H127.392V46.3679C127.393 44.0906 128.299 41.9072 129.91 40.2974C131.521 38.6877 133.705 37.7834 135.982 37.7834Z" fill="#2196F3"/>
<path d="M139.806 37.7834L137.955 28.4132H167.131L165.507 37.7834H139.806Z" fill="#2196F3"/>
<path d="M124.587 97.776H103.734V76.9171H124.587V97.776ZM104.316 97.194H124.005V77.4991H104.316V97.194Z" fill="#2196F3"/>
<path d="M198.297 81.9572C198.297 82.0387 183.776 82.1086 165.874 82.1086C147.971 82.1086 133.445 82.0387 133.445 81.9572C133.445 81.8758 147.96 81.8059 165.874 81.8059C183.788 81.8059 198.297 81.8699 198.297 81.9572Z" fill="#263238"/>
<path d="M198.297 86.2873C198.297 86.3746 183.776 86.4386 165.874 86.4386C147.971 86.4386 133.445 86.3746 133.445 86.2873C133.445 86.2 147.96 86.136 165.874 86.136C183.788 86.136 198.297 86.2058 198.297 86.2873Z" fill="#263238"/>
<path d="M198.297 90.6232C198.297 90.7047 183.776 90.7745 165.874 90.7745C147.971 90.7745 133.445 90.7047 133.445 90.6232C133.445 90.5417 147.96 90.4719 165.874 90.4719C183.788 90.4719 198.297 90.5417 198.297 90.6232Z" fill="#263238"/>
<path d="M198.297 94.9591C198.297 95.0406 183.776 95.1104 165.874 95.1104C147.971 95.1104 133.445 95.0406 133.445 94.9591C133.445 94.8776 147.96 94.8078 165.874 94.8078C183.788 94.8078 198.297 94.866 198.297 94.9591Z" fill="#263238"/>
<path d="M124.587 129.92H103.734V109.061H124.587V129.92ZM104.316 129.338H124.005V109.643H104.316V129.338Z" fill="#2196F3"/>
<path d="M107.877 119.921L110.648 116.947L115.263 120.637L125.826 110.382L128.358 113.368L115.059 126.486L107.877 119.921Z" fill="#2196F3"/>
<path d="M198.297 114.101C198.297 114.183 183.776 114.252 165.874 114.252C147.971 114.252 133.445 114.183 133.445 114.101C133.445 114.02 147.96 113.95 165.874 113.95C183.788 113.95 198.297 114.02 198.297 114.101Z" fill="#263238"/>
<path d="M198.297 118.437C198.297 118.518 183.776 118.588 165.874 118.588C147.971 118.588 133.445 118.518 133.445 118.437C133.445 118.356 147.96 118.286 165.874 118.286C183.788 118.286 198.297 118.35 198.297 118.437Z" fill="#263238"/>
<path d="M198.297 122.767C198.297 122.854 183.776 122.918 165.874 122.918C147.971 122.918 133.445 122.854 133.445 122.767C133.445 122.68 147.96 122.616 165.874 122.616C183.788 122.616 198.297 122.686 198.297 122.767Z" fill="#263238"/>
<path d="M198.297 127.103C198.297 127.184 183.776 127.254 165.874 127.254C147.971 127.254 133.445 127.184 133.445 127.103C133.445 127.021 147.96 126.952 165.874 126.952C183.788 126.952 198.297 127.021 198.297 127.103Z" fill="#263238"/>
<path d="M124.587 161.028H103.734V140.169H124.587V161.028ZM104.316 160.446H124.005V140.751H104.316V160.446Z" fill="#2196F3"/>
<path d="M107.877 151.029L110.648 148.055L115.263 151.745L125.826 141.49L128.358 144.476L115.059 157.594L107.877 151.029Z" fill="#2196F3"/>
<path d="M198.297 145.209C198.297 145.29 183.776 145.36 165.874 145.36C147.971 145.36 133.445 145.29 133.445 145.209C133.445 145.128 147.96 145.058 165.874 145.058C183.788 145.058 198.297 145.122 198.297 145.209Z" fill="#263238"/>
<path d="M198.297 149.539C198.297 149.626 183.776 149.69 165.874 149.69C147.971 149.69 133.445 149.626 133.445 149.539C133.445 149.452 147.96 149.388 165.874 149.388C183.788 149.388 198.297 149.458 198.297 149.539Z" fill="#263238"/>
<path d="M198.297 153.875C198.297 153.962 183.776 154.026 165.874 154.026C147.971 154.026 133.445 153.962 133.445 153.875C133.445 153.788 147.96 153.724 165.874 153.724C183.788 153.724 198.297 153.793 198.297 153.875Z" fill="#263238"/>
<path d="M198.297 158.211C198.297 158.292 183.776 158.362 165.874 158.362C147.971 158.362 133.445 158.292 133.445 158.211C133.445 158.129 147.96 158.06 165.874 158.06C183.788 158.06 198.297 158.129 198.297 158.211Z" fill="#263238"/>
<path d="M124.587 191.065H103.734V170.206H124.587V191.065ZM104.316 190.483H124.005V170.788H104.316V190.483Z" fill="#2196F3"/>
<path d="M107.877 181.066L110.648 178.092L115.263 181.782L125.826 171.527L128.358 174.507L115.059 187.625L107.877 181.066Z" fill="#2196F3"/>
<path d="M198.297 175.24C198.297 175.327 183.776 175.392 165.874 175.392C147.971 175.392 133.445 175.327 133.445 175.24C133.445 175.153 147.96 175.089 165.874 175.089C183.788 175.089 198.297 175.182 198.297 175.24Z" fill="#263238"/>
<path d="M198.297 179.576C198.297 179.658 183.776 179.727 165.874 179.727C147.971 179.727 133.445 179.658 133.445 179.576C133.445 179.495 147.96 179.425 165.874 179.425C183.788 179.425 198.297 179.495 198.297 179.576Z" fill="#263238"/>
<path d="M198.297 183.912C198.297 183.993 183.776 184.063 165.874 184.063C147.971 184.063 133.445 183.993 133.445 183.912C133.445 183.831 147.96 183.761 165.874 183.761C183.788 183.761 198.297 183.825 198.297 183.912Z" fill="#263238"/>
<path d="M198.297 188.242C198.297 188.329 183.776 188.393 165.874 188.393C147.971 188.393 133.445 188.329 133.445 188.242C133.445 188.155 147.96 188.091 165.874 188.091C183.788 188.091 198.297 188.161 198.297 188.242Z" fill="#263238"/>
<path d="M192.331 192.194L178.759 220.304H188.45L192.331 192.194Z" fill="#E0E0E0"/>
<path d="M188.45 220.462L192.331 192.351L214.587 199.219L188.45 220.462Z" fill="#FAFAFA"/>
<path d="M188.45 220.462L195.934 214.298L214.494 199.102L214.546 199.358L205.95 196.716L192.314 192.485L192.494 192.368C191.33 200.516 190.335 207.53 189.631 212.5C188.927 217.336 188.566 219.833 188.467 220.462C188.465 220.419 188.465 220.376 188.467 220.334L188.519 219.949C188.566 219.583 188.63 219.071 188.717 218.419C188.898 217.051 189.154 215.09 189.48 212.599C190.155 207.588 191.098 200.54 192.198 192.304V192.141L192.355 192.188L206.026 196.402L214.616 199.056L214.884 199.137L214.669 199.312C207.155 205.37 200.584 210.667 195.882 214.444L190.393 218.849L188.927 220.013L188.554 220.31L188.45 220.462Z" fill="#263238"/>
<g opacity="0.3">
<path d="M165.111 28.4132L163.505 37.7834H165.507L167.131 28.4132H164.576" fill="black"/>
</g>
<path d="M79.6563 127.237C80.3579 127.29 81.0631 127.201 81.7297 126.975C82.3962 126.75 83.0104 126.392 83.5357 125.924C84.061 125.455 84.4865 124.886 84.787 124.25C85.0874 123.613 85.2565 122.923 85.2842 122.22C85.3948 119.368 85.4937 116.487 85.4937 116.487C85.4937 116.487 89.8122 116.086 90.1497 111.831C90.4873 107.577 90.3185 97.6945 90.3185 97.6945C87.9512 96.5002 85.3078 95.96 82.6618 96.1298C80.0157 96.2997 77.4631 97.1734 75.268 98.6607L75.5299 113.7V121.795C75.5357 124.484 76.95 127.033 79.6563 127.237Z" fill="#FFBE9D"/>
<path d="M85.8662 106.593C85.5508 106.14 85.076 105.822 84.5365 105.704C83.9971 105.585 83.4328 105.674 82.9562 105.953C82.4725 106.289 82.1239 106.786 81.9725 107.355C81.8211 107.925 81.8769 108.529 82.1298 109.061C82.3501 109.456 82.6502 109.8 83.0109 110.073C83.3716 110.345 83.785 110.54 84.225 110.644C84.615 110.729 84.9608 110.953 85.1975 111.274C85.4343 111.596 85.5458 111.992 85.5112 112.39C85.332 113.513 84.8072 114.553 84.0096 115.364C82.6913 116.706 80.9366 117.531 79.0626 117.692C77.241 117.907 75.1574 117.529 74.0982 116.033C73.3241 114.945 73.2717 113.519 73.2426 112.186C73.1767 109.036 73.1107 105.885 73.0447 102.735C72.9762 101.599 73.0485 100.459 73.2601 99.3416C73.483 98.2141 74.1232 97.2123 75.0526 96.5363C76.0944 95.8496 77.4097 95.7914 78.5912 95.4131C80.0753 94.93 81.3324 93.9523 82.7176 93.2422C84.1027 92.5322 85.7964 92.1073 87.1873 92.8057C88.1884 93.3062 88.8577 94.3015 89.8238 94.8544C91.209 95.6401 93.0888 95.4364 93.7581 97.4966C93.9937 98.2011 93.9937 98.9631 93.7581 99.6675C92.8211 102.432 89.3989 103.549 86.9313 102.356C86.8847 102.822 87.3445 103.864 86.8498 105.342C86.6926 105.819 86.6403 106.535 85.9011 106.553" fill="#263238"/>
<path d="M74.0691 97.776C74.7473 96.4244 75.2107 94.9752 75.4426 93.4808C75.5523 92.7324 75.4881 91.9687 75.255 91.249C75.0218 90.5293 74.626 89.8731 74.0982 89.3312C73.3191 88.6547 72.3124 88.299 71.2813 88.336C70.3018 88.3917 69.3634 88.7488 68.5946 89.3582C67.8258 89.9677 67.264 90.7997 66.9861 91.7407C66.7464 92.6893 66.7834 93.6868 67.0928 94.6151C67.4023 95.5434 67.9711 96.3636 68.7321 96.9787C69.5103 97.5763 70.4325 97.9578 71.4054 98.0845C72.3783 98.2113 73.3675 98.0787 74.2728 97.7003" fill="#263238"/>
<path d="M74.9071 96.2337C74.8757 96.7562 74.6509 97.2483 74.2764 97.6141C73.902 97.9799 73.4049 98.1932 72.8818 98.2125C72.8818 98.1252 73.5103 97.9564 74.0458 97.3977C74.5812 96.839 74.8257 96.2104 74.9071 96.2337Z" fill="#2196F3"/>
<path d="M73.5045 97.2813C73.171 97.6309 72.7765 97.9169 72.3405 98.1252C71.8746 98.3908 71.3516 98.5405 70.8157 98.5617C70.4754 98.5801 70.1356 98.5168 69.8248 98.377C69.514 98.2373 69.2411 98.0252 69.0289 97.7585C68.8412 97.4778 68.7159 97.16 68.6617 96.8266C68.6075 96.4932 68.6256 96.1521 68.7147 95.8263C68.8497 95.3092 69.0938 94.827 69.4305 94.412C69.7092 94.0187 70.0514 93.6745 70.4432 93.3935C70.1842 93.7958 69.9045 94.1843 69.6051 94.5575C69.313 94.9628 69.1034 95.4216 68.9882 95.9078C68.9156 96.1944 68.9034 96.493 68.9525 96.7846C69.0016 97.0762 69.1109 97.3544 69.2734 97.6014C69.4594 97.8286 69.6954 98.0098 69.9629 98.1309C70.2304 98.2521 70.5222 98.3098 70.8157 98.2998C71.313 98.2918 71.8022 98.1725 72.2474 97.9506C73.004 97.5607 73.4754 97.2347 73.5045 97.2813Z" fill="#263238"/>
<path d="M66.2412 102.106C66.3289 102.254 66.3974 102.412 66.4449 102.578C66.5958 103.014 66.8095 103.425 67.0792 103.8C67.2587 104.07 67.51 104.286 67.8051 104.421C68.1002 104.557 68.4273 104.608 68.7496 104.568C69.1354 104.459 69.4865 104.252 69.7689 103.968C70.0514 103.683 70.2556 103.331 70.3617 102.944C70.5708 102.13 70.7167 101.301 70.7982 100.465C70.8804 99.7476 71.1628 99.0679 71.613 98.5035C71.9355 98.1322 72.3748 97.8818 72.8585 97.7935C73.0335 97.7507 73.2177 97.767 73.3823 97.84C73.3823 97.84 73.1902 97.84 72.8818 97.9099C72.4447 98.0307 72.0574 98.2876 71.776 98.6432C71.3794 99.1901 71.1363 99.8331 71.0718 100.506C71.0046 101.362 70.8624 102.211 70.6469 103.043C70.5268 103.48 70.2926 103.876 69.9684 104.193C69.6441 104.509 69.2415 104.733 68.802 104.841C68.4 104.906 67.9883 104.827 67.638 104.62C67.3473 104.444 67.0973 104.208 66.9046 103.928C66.6378 103.527 66.441 103.085 66.3226 102.618C66.2629 102.454 66.2353 102.28 66.2412 102.106Z" fill="#263238"/>
<path d="M64.1401 138.01C64.1401 138.01 61.9576 153.968 64.1401 155.993C66.3226 158.019 68.412 157.344 68.412 157.344L72.5617 153.852L73.3765 137.986L64.1401 138.01Z" fill="#FFBE9D"/>
<path d="M109.216 93.2131L111.986 90.2391L116.602 93.929L127.165 83.6741L129.697 86.6598L116.398 99.7781L109.216 93.2131Z" fill="#2196F3"/>
<path d="M122.23 94.0221L118.214 96.6004C118.033 95.0115 116.823 93.4401 116.881 94.2374C116.939 95.0348 116.881 99.1728 116.881 99.1728L109.728 114.241C108.756 116.627 106.783 118.129 105.311 118.484L98.612 120.474L101.225 129.315L110.537 126.23C111.726 125.836 112.805 125.169 113.69 124.283C114.574 123.397 115.239 122.315 115.63 121.126L122.032 101.617C122.457 100.361 122.799 99.0774 123.056 97.776C123.335 96.1406 122.23 94.0221 122.23 94.0221Z" fill="#FFBE9D"/>
<path d="M89.3291 258.827L89.2243 254.363L80.8552 254.497L80.9308 261.033L81.4546 261.062C83.7826 261.149 93.2169 261.359 94.7533 260.87C96.4644 260.317 89.3291 258.827 89.3291 258.827Z" fill="#2196F3"/>
<g opacity="0.5">
<path d="M83.9689 260.922C83.8278 260.225 83.4365 259.604 82.8689 259.176C82.3099 258.741 81.6074 258.534 80.9017 258.594L80.9367 260.922H83.9689Z" fill="white"/>
</g>
<g opacity="0.4">
<path d="M92.792 259.683C92.792 259.683 95.2946 260.358 94.992 260.777C94.6893 261.196 85.1329 261.359 80.9076 261.033V260.847L92.0587 260.771C92.0587 260.771 92.3322 259.712 92.792 259.683Z" fill="white"/>
</g>
<path d="M80.8086 260.841H80.9541H81.3673L82.8922 260.882C84.1784 260.911 85.9535 260.922 87.9148 260.882C89.8762 260.841 91.6571 260.788 92.9375 260.724L94.4623 260.637L94.8756 260.608H95.0153H94.8698H94.4565L92.9375 260.666C91.6513 260.707 89.8762 260.765 87.9148 260.794C85.9535 260.823 84.1784 260.794 82.8922 260.794H81.3732H80.7912L80.8086 260.841Z" fill="#263238"/>
<path d="M92.0936 260.899C92.1542 260.646 92.2461 260.402 92.3672 260.171C92.5137 259.959 92.6835 259.764 92.8735 259.589C92.6258 259.706 92.4189 259.894 92.2798 260.13C92.1407 260.365 92.0758 260.638 92.0936 260.911V260.899Z" fill="#263238"/>
<path d="M89.6026 259.683C89.6026 259.683 89.7423 259.555 89.8645 259.362C89.9868 259.17 90.0566 258.996 90.0333 258.984C90.01 258.973 89.8936 259.112 89.7772 259.304C89.6608 259.496 89.5794 259.671 89.6026 259.683Z" fill="#263238"/>
<path d="M88.9217 259.339C88.9217 259.339 89.0672 259.269 89.2127 259.136C89.3582 259.002 89.4513 258.879 89.4339 258.862C89.4164 258.845 89.2825 258.932 89.1429 259.06C89.0032 259.188 88.8984 259.316 88.9217 259.339Z" fill="#263238"/>
<path d="M88.4794 258.554C88.6189 258.604 88.7687 258.62 88.9159 258.6C89.0635 258.617 89.213 258.599 89.3524 258.548C89.2115 258.503 89.063 258.487 88.9159 258.501C88.7683 258.485 88.6189 258.503 88.4794 258.554Z" fill="#263238"/>
<path d="M88.3222 258.001C88.4692 258.091 88.6387 258.137 88.8111 258.134C88.9837 258.159 89.1597 258.133 89.3175 258.059C89.151 258.043 88.9834 258.043 88.8169 258.059C88.6542 258.024 88.4886 258.005 88.3222 258.001Z" fill="#263238"/>
<path d="M89.882 258.949C90.059 258.982 90.2404 258.982 90.4174 258.949C90.6152 258.923 90.8101 258.878 90.9994 258.815C91.1125 258.78 91.2217 258.733 91.3254 258.676C91.3581 258.658 91.387 258.634 91.41 258.605C91.4331 258.576 91.4498 258.543 91.4592 258.507C91.4661 258.467 91.4615 258.425 91.4461 258.387C91.4307 258.349 91.405 258.316 91.3719 258.292C91.1646 258.196 90.9305 258.174 90.709 258.23C90.4875 258.286 90.2921 258.417 90.1555 258.6C90.0772 258.709 90.02 258.831 89.9868 258.961C89.9765 259.009 89.9765 259.058 89.9868 259.106C90.0424 258.942 90.1229 258.787 90.2254 258.647C90.3454 258.504 90.5025 258.397 90.6793 258.338C90.891 258.265 91.1229 258.277 91.3254 258.373C91.4068 258.437 91.3777 258.536 91.2846 258.594C91.1882 258.648 91.0869 258.693 90.982 258.728C90.7922 258.794 90.5976 258.844 90.4 258.879C90.0799 258.932 89.882 258.932 89.882 258.949Z" fill="#263238"/>
<path d="M90.0158 258.99C90.0813 258.878 90.1021 258.745 90.0741 258.617C90.0521 258.477 89.9983 258.344 89.9169 258.228C89.8708 258.149 89.8056 258.083 89.7272 258.036C89.6489 257.989 89.56 257.963 89.4688 257.96C89.4415 257.965 89.4157 257.976 89.3927 257.992C89.3697 258.008 89.35 258.028 89.3349 258.051C89.3197 258.074 89.3093 258.1 89.3043 258.128C89.2993 258.155 89.2998 258.183 89.3058 258.21C89.3187 258.296 89.3506 258.377 89.3989 258.449C89.4696 258.568 89.5579 258.676 89.6608 258.769C89.7439 258.865 89.85 258.939 89.9693 258.984C89.9693 258.984 89.8645 258.891 89.7132 258.722C89.6261 258.623 89.5481 258.516 89.4804 258.402C89.4047 258.292 89.3524 258.088 89.4804 258.059C89.6084 258.03 89.7539 258.175 89.8354 258.28C89.9134 258.384 89.9688 258.503 89.9984 258.629C90.0144 258.749 90.0203 258.869 90.0158 258.99Z" fill="#263238"/>
<path d="M80.9483 258.548C80.9483 258.548 81.1869 258.548 81.5652 258.548C82.0587 258.594 82.5288 258.78 82.9212 259.083C83.3137 259.386 83.6123 259.793 83.7826 260.259C83.9165 260.614 83.934 260.841 83.9514 260.841C83.9629 260.785 83.9629 260.728 83.9514 260.672C83.9324 260.52 83.8993 260.37 83.8525 260.224C83.6911 259.738 83.3872 259.311 82.9804 259C82.5736 258.688 82.0825 258.507 81.571 258.478C81.4183 258.461 81.2641 258.461 81.1113 258.478C81.0528 258.49 80.9974 258.514 80.9483 258.548Z" fill="#263238"/>
<path d="M81.7631 255.056C81.711 255.626 81.6955 256.2 81.7165 256.773C81.698 257.355 81.7154 257.938 81.7689 258.519C81.8219 257.938 81.8374 257.355 81.8155 256.773C81.8295 256.2 81.812 255.627 81.7631 255.056Z" fill="#263238"/>
<path d="M85.0048 260.09C85.4086 260.173 85.821 260.206 86.2329 260.189C86.6437 260.206 87.0549 260.167 87.4551 260.073C87.4551 260.043 86.8731 260.073 86.2329 260.073C85.5927 260.073 85.0107 260.061 85.0048 260.09Z" fill="#263238"/>
<path d="M83.3694 260.107C83.3694 260.107 83.416 260.224 83.4684 260.352C83.5207 260.48 83.5615 260.585 83.5906 260.585C83.6197 260.585 83.6313 260.451 83.5615 260.305C83.4916 260.16 83.3869 260.09 83.3694 260.107Z" fill="#263238"/>
<path d="M82.735 259.351C82.735 259.351 82.77 259.456 82.8631 259.543C82.9562 259.63 83.0377 259.683 83.0551 259.665C83.0726 259.648 83.0202 259.555 82.9329 259.473C82.8456 259.392 82.7583 259.328 82.735 259.351Z" fill="#263238"/>
<path d="M81.8446 258.99C81.8446 258.99 81.9668 258.99 82.089 259.054C82.2112 259.118 82.2985 259.159 82.3218 259.141C82.3451 259.124 82.2753 259.007 82.1181 258.961C81.961 258.914 81.8388 258.99 81.8446 258.99Z" fill="#263238"/>
<path d="M81.216 258.856C81.216 258.856 81.2509 258.926 81.3208 258.949C81.3906 258.973 81.4546 258.978 81.4663 258.949C81.4779 258.92 81.4255 258.879 81.3557 258.856C81.2859 258.833 81.2218 258.827 81.216 258.856Z" fill="#263238"/>
<path d="M59.7868 257.401L62.6269 253.95L56.19 248.59L51.988 253.595L52.3605 253.956C54.0541 255.533 61.0905 261.853 62.5687 262.482C64.2274 263.186 59.7868 257.401 59.7868 257.401Z" fill="#2196F3"/>
<g opacity="0.5">
<path d="M54.38 255.498C54.7361 254.876 54.8501 254.144 54.7001 253.444C54.5574 252.751 54.1583 252.138 53.5827 251.727L52.052 253.513L54.38 255.498Z" fill="white"/>
</g>
<g opacity="0.4">
<path d="M61.8762 260.323C61.8762 260.323 63.3312 262.47 62.8306 262.587C62.3301 262.703 54.962 256.581 51.988 253.595L52.116 253.461L60.619 260.678C60.619 260.678 61.4862 260.026 61.8762 260.323Z" fill="white"/>
</g>
<path d="M52.0171 253.374L52.116 253.478L52.4187 253.764L53.5477 254.788C54.5022 255.644 55.8408 256.813 57.3482 258.07C58.8556 259.328 60.2582 260.439 61.2592 261.231L62.4698 262.156L62.8015 262.401L62.9238 262.482L62.8132 262.383L62.4931 262.121L61.3291 261.173C60.3222 260.369 58.9429 259.252 57.4355 257.995C55.9281 256.738 54.5837 255.579 53.6176 254.736L52.4536 253.735L52.1393 253.461L52.0171 253.374Z" fill="#263238"/>
<path d="M60.5317 260.777C60.7438 260.622 60.9746 260.495 61.2185 260.398C61.4702 260.335 61.7275 260.296 61.9867 260.282C61.7275 260.187 61.4428 260.187 61.1836 260.282C60.9136 260.363 60.682 260.538 60.5317 260.777Z" fill="#263238"/>
<path d="M59.4376 258.228C59.4376 258.257 59.6296 258.228 59.845 258.152C60.0603 258.076 60.2349 258.006 60.2233 257.977C60.2116 257.948 60.0312 257.977 59.8159 258.053C59.6787 258.083 59.5497 258.143 59.4376 258.228Z" fill="#263238"/>
<path d="M59.1466 257.518C59.1466 257.518 59.3037 257.564 59.5016 257.558C59.6995 257.552 59.8508 257.523 59.8508 257.494C59.8508 257.465 59.6878 257.448 59.4958 257.454C59.376 257.448 59.2565 257.47 59.1466 257.518Z" fill="#263238"/>
<path d="M59.3212 256.662C59.3212 256.662 59.4376 256.825 59.6238 256.982C59.7289 257.088 59.8533 257.173 59.9905 257.232C59.9905 257.232 59.8741 257.064 59.6878 256.906C59.5016 256.749 59.3445 256.615 59.3212 256.662Z" fill="#263238"/>
<path d="M59.5656 256.115C59.629 256.275 59.7256 256.419 59.849 256.538C59.9724 256.658 60.1199 256.749 60.2815 256.808C60.1688 256.685 60.0482 256.571 59.9206 256.464C59.7286 256.278 59.618 256.08 59.5656 256.115Z" fill="#263238"/>
<path d="M60.1243 257.826C60.2398 257.965 60.3799 258.081 60.5376 258.169C60.7027 258.276 60.8782 258.366 61.0614 258.437C61.1695 258.486 61.2827 258.523 61.3989 258.548C61.4722 258.56 61.5473 258.543 61.6084 258.501C61.6405 258.476 61.6647 258.443 61.6782 258.405C61.6916 258.366 61.6937 258.325 61.6841 258.286C61.5943 258.073 61.4328 257.898 61.2276 257.792C61.0225 257.685 60.7866 257.654 60.5608 257.704C60.4279 257.73 60.3026 257.786 60.1942 257.867C60.1534 257.893 60.1179 257.926 60.0894 257.966C60.2385 257.875 60.4018 257.81 60.5725 257.774C60.7572 257.742 60.9472 257.764 61.1196 257.838C61.327 257.918 61.4943 258.077 61.5852 258.28C61.5852 258.385 61.5211 258.443 61.4106 258.425C61.3032 258.401 61.1981 258.368 61.0963 258.326C60.917 258.26 60.7437 258.178 60.5783 258.082C60.2931 257.971 60.136 257.826 60.1243 257.826Z" fill="#263238"/>
<path d="M60.2 257.96C60.2 257.96 60.3513 257.913 60.491 257.715C60.566 257.595 60.6137 257.46 60.6307 257.32C60.644 257.229 60.6357 257.136 60.6063 257.049C60.577 256.962 60.5275 256.883 60.4619 256.819C60.4117 256.792 60.3529 256.786 60.2984 256.803C60.2438 256.819 60.198 256.856 60.1709 256.906C60.1266 256.979 60.0988 257.061 60.0894 257.145C60.0724 257.282 60.0724 257.421 60.0894 257.558C60.0894 257.686 60.1214 257.812 60.1825 257.925C60.1825 257.925 60.1825 257.779 60.1825 257.558C60.181 257.426 60.1927 257.293 60.2175 257.163C60.2175 257.029 60.3222 256.842 60.4444 256.906C60.5667 256.97 60.5725 257.174 60.5725 257.308C60.5621 257.437 60.5244 257.562 60.4619 257.675C60.3854 257.779 60.2976 257.875 60.2 257.96Z" fill="#263238"/>
<path d="M53.6176 251.727C53.6176 251.727 53.8155 251.86 54.0774 252.134C54.4182 252.494 54.6537 252.941 54.7583 253.426C54.8547 253.913 54.8144 254.416 54.6419 254.881C54.508 255.242 54.3625 255.434 54.38 255.463C54.4238 255.425 54.4611 255.379 54.4906 255.329C54.5773 255.204 54.6496 255.069 54.7059 254.928C54.9071 254.454 54.9599 253.93 54.8572 253.426C54.7522 252.923 54.4988 252.463 54.1297 252.105C54.0198 251.998 53.8988 251.902 53.7689 251.82C53.7249 251.779 53.6735 251.748 53.6176 251.727Z" fill="#263238"/>
<path d="M56.5159 249.602C56.1025 250.003 55.7138 250.429 55.3519 250.877C54.9678 251.304 54.6064 251.751 54.2694 252.215C54.6854 251.819 55.0743 251.395 55.4334 250.947C55.817 250.517 56.1783 250.069 56.5159 249.602Z" fill="#263238"/>
<path d="M55.6895 255.539C55.9382 255.865 56.2277 256.159 56.5509 256.412C56.853 256.693 57.1917 256.931 57.5577 257.122C57.5577 257.122 57.1329 256.773 56.6207 256.336C56.1085 255.9 55.7128 255.498 55.6895 255.539Z" fill="#263238"/>
<path d="M54.4324 254.485C54.4324 254.485 54.3916 254.602 54.3567 254.736C54.3218 254.869 54.2694 254.968 54.2927 254.986C54.316 255.003 54.4091 254.916 54.4557 254.759C54.5022 254.602 54.4615 254.48 54.4324 254.485Z" fill="#263238"/>
<path d="M54.4498 253.496C54.4207 253.496 54.4091 253.601 54.4207 253.723C54.4324 253.845 54.4615 253.944 54.4906 253.944C54.5197 253.944 54.5313 253.839 54.4906 253.717C54.4498 253.595 54.4789 253.496 54.4498 253.496Z" fill="#263238"/>
<path d="M53.9959 252.658C53.9959 252.687 54.0715 252.757 54.1356 252.867C54.1996 252.978 54.2287 253.088 54.2578 253.088C54.2869 253.088 54.3043 252.955 54.2229 252.815C54.1414 252.675 54.0075 252.635 53.9959 252.658Z" fill="#263238"/>
<path d="M53.6176 252.128C53.6176 252.128 53.6176 252.21 53.6176 252.274C53.6176 252.338 53.7049 252.378 53.7282 252.367C53.7514 252.355 53.7282 252.285 53.7282 252.221C53.7282 252.157 53.6409 252.117 53.6176 252.128Z" fill="#263238"/>
<path d="M77.206 163.885C77.206 163.885 74.4183 175.677 75.2098 178.011C76.0013 180.344 81.1054 181.689 81.1054 181.689L80.9308 213.984L52.6922 248.904L63.11 257.424C63.11 257.424 93.6883 222.452 96.3829 216.102C99.0776 209.753 94.6369 163.344 94.6369 163.344L77.206 163.885Z" fill="#263238"/>
<path d="M91.628 159.078L93.0073 257.157L78.6494 257.244L71.4384 177.347C69.9136 175.892 67.766 173.401 68.0628 167.843L68.412 161.389L91.628 159.078Z" fill="#263238"/>
<path d="M76.496 219.443C76.517 219.391 76.5444 219.343 76.5775 219.298C76.6531 219.193 76.7404 219.059 76.851 218.896L77.9161 217.389L81.8155 211.988V212.063C81.5012 208.659 81.1229 204.532 80.7155 200.08C80.1917 194.26 79.7727 188.964 79.5224 185.128C79.3944 183.214 79.3129 181.665 79.2663 180.595C79.2663 180.082 79.2314 179.669 79.2256 179.355C79.2078 179.212 79.2078 179.067 79.2256 178.924C79.2537 179.066 79.2712 179.21 79.278 179.355C79.278 179.663 79.3362 180.077 79.3769 180.589C79.4642 181.689 79.5806 183.225 79.7319 185.117C80.0346 188.94 80.4885 194.219 81.0123 200.051C81.4023 204.521 81.798 208.641 82.0599 212.063V212.104V212.139L78.0732 217.47L76.95 218.943L76.6473 219.321C76.5251 219.414 76.496 219.449 76.496 219.443Z" fill="#455A64"/>
<path d="M80.8959 178.924C79.6111 178.856 78.3362 178.661 77.0896 178.342C75.8216 178.128 74.5778 177.789 73.3765 177.33C74.6487 177.493 75.91 177.732 77.1537 178.045C78.4168 178.267 79.6663 178.56 80.8959 178.924Z" fill="#455A64"/>
<path d="M90.7317 212.43C89.4924 211.916 88.1881 211.575 86.8556 211.417C85.5132 211.363 84.1697 211.495 82.8631 211.807C83.2043 211.592 83.5836 211.444 83.9805 211.371C84.9294 211.123 85.913 211.037 86.8905 211.115C87.8618 211.193 88.8136 211.431 89.7074 211.819C90.0827 211.96 90.4296 212.167 90.7317 212.43Z" fill="#455A64"/>
<path d="M95.8009 216.958C95.865 217.01 91.8259 222.435 86.7741 229.069C81.7224 235.704 77.5727 241.053 77.5087 241.006C77.4447 240.96 81.4837 235.53 86.5355 228.889C91.5873 222.248 95.7369 216.906 95.8009 216.958Z" fill="#455A64"/>
<path d="M93.8571 166.359C93.6915 166.784 93.4115 167.154 93.0481 167.43C92.6322 167.794 92.1454 168.068 91.6185 168.236C91.0915 168.403 90.5356 168.459 89.9858 168.401C89.4359 168.343 88.904 168.172 88.4234 167.899C87.9429 167.626 87.524 167.256 87.1932 166.813C86.8851 166.473 86.6829 166.05 86.6112 165.596C86.8352 165.969 87.08 166.328 87.3445 166.673C88.0097 167.479 88.9649 167.992 90.0045 168.101C91.044 168.21 92.0848 167.906 92.9026 167.255C93.2362 166.973 93.5548 166.674 93.8571 166.359Z" fill="#455A64"/>
<path d="M74.2262 115.894C71.8603 113.646 70.4652 110.563 70.3381 107.302C70.2109 104.041 71.3616 100.859 73.5453 98.4337" fill="#263238"/>
<path d="M66.1539 125.043C66.1539 125.043 63.0343 128.57 62.3883 142.055C62.3883 142.055 71.2755 143.742 71.4384 143.259C71.6014 142.776 66.1539 125.043 66.1539 125.043Z" fill="#2196F3"/>
<g opacity="0.3">
<path d="M66.1539 125.043C66.1539 125.043 63.0343 128.57 62.3883 142.055C62.3883 142.055 71.2755 143.742 71.4384 143.259C71.6014 142.776 66.1539 125.043 66.1539 125.043Z" fill="black"/>
</g>
<path d="M67.5972 164.322H94.8872L94.4449 160.056C94.4449 160.056 91.3254 143.841 91.3486 143.626L91.8375 142.596C92.4752 141.258 92.8162 139.799 92.8373 138.317C92.8584 136.835 92.559 135.367 91.9597 134.011L105.346 129.443L102.075 118.42C96.0105 119.438 86.844 120.585 86.844 120.585L85.4821 120.695C85.4821 120.695 76.0188 121.19 75.8151 121.213C71.8575 121.696 67.2538 121.999 65.5719 126.236C64.6698 128.5 65.5253 131.899 66.9978 135.402L70.4898 146.169C71.8866 152.088 69.6575 151.803 68.4295 157.763C68.2316 158.659 67.5798 163.495 67.5972 164.322Z" fill="#2196F3"/>
<g opacity="0.3">
<path d="M67.5972 164.322H94.8872L94.4449 160.056C94.4449 160.056 91.3254 143.841 91.3486 143.626L91.8375 142.596C92.4752 141.258 92.8162 139.799 92.8373 138.317C92.8584 136.835 92.559 135.367 91.9597 134.011L105.346 129.443L102.075 118.42C96.0105 119.438 86.844 120.585 86.844 120.585L85.4821 120.695C85.4821 120.695 76.0188 121.19 75.8151 121.213C71.8575 121.696 67.2538 121.999 65.5719 126.236C64.6698 128.5 65.5253 131.899 66.9978 135.402L70.4898 146.169C71.8866 152.088 69.6575 151.803 68.4295 157.763C68.2316 158.659 67.5798 163.495 67.5972 164.322Z" fill="black"/>
</g>
<path d="M105.194 129.623C105.01 129.727 104.815 129.811 104.612 129.873C104.228 130.013 103.664 130.205 102.965 130.455C101.569 130.927 99.6247 131.549 97.4829 132.236C95.3412 132.923 93.4089 133.604 92.0703 134.163C91.3836 134.442 90.8423 134.686 90.464 134.849C90.2805 134.951 90.085 135.029 89.882 135.082C90.0511 134.948 90.2345 134.833 90.4291 134.739C90.7957 134.547 91.3254 134.267 92.0005 133.965C93.7648 133.196 95.5698 132.524 97.4073 131.951C99.5548 131.264 101.481 130.671 102.919 130.252C103.623 130.042 104.199 129.879 104.595 129.769C104.788 129.695 104.989 129.646 105.194 129.623Z" fill="#263238"/>
<path d="M103.611 123.751C103.611 123.832 95.539 123.902 85.5694 123.902C75.5997 123.902 67.5274 123.832 67.5274 123.751C67.5274 123.669 75.5939 123.599 85.5694 123.599C95.5449 123.599 103.611 123.669 103.611 123.751Z" fill="#FAFAFA"/>
<path d="M104.432 129.111C104.432 129.192 95.4517 129.262 84.3763 129.262C73.3008 129.262 64.3264 129.192 64.3264 129.111C64.3264 129.029 73.3008 128.96 84.3763 128.96C95.4517 128.96 104.432 129.029 104.432 129.111Z" fill="#FAFAFA"/>
<path d="M66.602 135.21C66.0564 135.358 65.4891 135.409 64.9258 135.362C64.3645 135.409 63.7991 135.358 63.2555 135.21C63.7991 135.062 64.3645 135.011 64.9258 135.059C65.4891 135.011 66.0564 135.062 66.602 135.21Z" fill="#FAFAFA"/>
<path d="M92.792 135.396C92.792 135.478 86.9196 135.548 79.6795 135.548C72.4395 135.548 66.5671 135.478 66.5671 135.396C66.5671 135.315 72.4336 135.245 79.6795 135.245C86.9254 135.245 92.792 135.309 92.792 135.396Z" fill="#FAFAFA"/>
<path d="M92.21 141.676C92.21 141.764 86.9371 141.828 80.442 141.828C73.9468 141.828 68.6681 141.764 68.6681 141.676C68.6681 141.589 73.9352 141.525 80.442 141.525C86.9487 141.525 92.21 141.595 92.21 141.676Z" fill="#FAFAFA"/>
<path d="M92.047 147.502C92.047 147.584 87.2746 147.653 81.3848 147.653C75.495 147.653 70.7109 147.584 70.7109 147.502C70.7109 147.421 75.4891 147.351 81.3848 147.351C87.2805 147.351 92.047 147.415 92.047 147.502Z" fill="#FAFAFA"/>
<path d="M92.9841 152.21C92.9841 152.298 87.8741 152.362 81.571 152.362C75.268 152.362 70.158 152.298 70.158 152.21C70.158 152.123 75.268 152.059 81.571 152.059C87.8741 152.059 92.9841 152.129 92.9841 152.21Z" fill="#FAFAFA"/>
<path d="M94.4623 158.217C94.4623 158.304 88.6423 158.368 81.4779 158.368C74.3135 158.368 68.4935 158.304 68.4935 158.217C68.4935 158.129 74.3135 158.065 81.4779 158.065C88.6423 158.065 94.4623 158.135 94.4623 158.217Z" fill="#FAFAFA"/>
<path d="M70.3093 145.663C70.1995 145.499 70.1169 145.318 70.0649 145.128L69.4829 143.638C68.9998 142.38 68.3189 140.646 67.6205 138.708C66.9221 136.77 66.3343 135.001 65.9676 133.703C65.7872 133.051 65.6475 132.539 65.5719 132.155C65.5159 131.965 65.4827 131.77 65.4729 131.573C65.7422 132.249 65.9753 132.938 66.1713 133.639C66.5904 134.919 67.2015 136.677 67.9173 138.609C68.6332 140.541 69.2617 142.287 69.6633 143.568C69.8787 144.208 70.0416 144.732 70.1464 145.093C70.2248 145.275 70.2796 145.467 70.3093 145.663Z" fill="#263238"/>
</g>
<defs>
<filter id="filter0_d_90_2524" x="-2" y="0" width="299" height="299" filterUnits="userSpaceOnUse" color-interpolation-filters="sRGB">
<feFlood flood-opacity="0" result="BackgroundImageFix"/>
<feColorMatrix in="SourceAlpha" type="matrix" values="0 0 0 0 0 0 0 0 0 0 0 0 0 0 0 0 0 0 127 0" result="hardAlpha"/>
<feOffset dy="4"/>
<feGaussianBlur stdDeviation="2"/>
<feComposite in2="hardAlpha" operator="out"/>
<feColorMatrix type="matrix" values="0 0 0 0 0 0 0 0 0 0 0 0 0 0 0 0 0 0 0.25 0"/>
<feBlend mode="normal" in2="BackgroundImageFix" result="effect1_dropShadow_90_2524"/>
<feBlend mode="normal" in="SourceGraphic" in2="effect1_dropShadow_90_2524" result="shape"/>
</filter>
<filter id="filter1_f_90_2524" x="-15.0996" y="243.93" width="325.199" height="54.5016" filterUnits="userSpaceOnUse" color-interpolation-filters="sRGB">
<feFlood flood-opacity="0" result="BackgroundImageFix"/>
<feBlend mode="normal" in="SourceGraphic" in2="BackgroundImageFix" result="shape"/>
<feGaussianBlur stdDeviation="10" result="effect1_foregroundBlur_90_2524"/>
</filter>
<clipPath id="clip0_90_2524">
<rect width="291" height="291" fill="white" transform="translate(2)"/>
</clipPath>
</defs>
</svg>
